# xmcd CD database file generated by Grip 3.0.5
# 
# Track frame offsets:
#       160
#       14312
#       28617
#       52247
#       69210
#       85522
#       102232
#       120977
#       139122
#       154815
#       176450
#       210137
# 
# Disc length: 2994 seconds
# 
# Revision: 1
# Processed by: cddbd v1.4PL0 Copyright (c) Steve Scherf et al.
# Submitted via: Grip 3.0.5
# 
DISCID=8d0bb00c
DTITLE=Nanci Griffith - One Fair Summer Evening
DYEAR=1988
DGENRE=Country
TTITLE0=Once In A Very Blue Moon
TTITLE1=Looking For The Time (Workin' Girl)
TTITLE2=Deadwood, South Dakota
TTITLE3=More Than A Whisper
TTITLE4=I Would Bring You Ireland
TTITLE5=Roseville Fair
TTITLE6=Workin' In Corners
TTITLE7=Trouble In The Fields
TTITLE8=The Wing And The Wheel
TTITLE9=From A Distance
TTITLE10=Love At The Five And Dime
TTITLE11=Spin On A Red Brick Floor
EXTD=
EXTT0=
EXTT1=
EXTT2=
EXTT3=
EXTT4=
EXTT5=
EXTT6=
EXTT7=
EXTT8=
EXTT9=
EXTT10=
EXTT11=
PLAYORDER=
